<svg width="36" height="36" viewBox="0 0 36 36" fill="none" xmlns="http://www.w3.org/2000/svg">
<path fill-rule="evenodd" clip-rule="evenodd" d="M7.32018 3.05636C8.80119 0.731631 11.8864 0.0476671 14.2111 1.52868C15.3079 2.22743 16.7012 3.71514 17.666 5.25361C17.7823 5.43903 17.8943 5.62824 18.0002 5.81996C18.1061 5.62824 18.2181 5.43903 18.3344 5.25361C19.2992 3.71514 20.6925 2.22743 21.7893 1.52868C24.114 0.0476671 27.1992 0.731631 28.6802 3.05636C30.1612 5.38108 29.4773 8.46625 27.1525 9.94726C26.7289 10.2172 26.1798 10.4774 25.5616 10.7081H35C35.5523 10.7081 36 11.1558 36 11.7081V16.0899C36 16.6422 35.5523 17.0899 35 17.0899H34.3636V17.6627H18.9V10.7081H17.1V17.6627H1.63636V17.0899H1C0.447715 17.0899 0 16.6422 0 16.0899V11.7081C0 11.1558 0.447716 10.7081 1 10.7081H10.4387C9.82054 10.4774 9.27151 10.2172 8.84785 9.94726C6.52313 8.46625 5.83916 5.38108 7.32018 3.05636ZM1.63636 19.4627V33.2536C1.63636 34.3581 2.53179 35.2536 3.63636 35.2536L17.1 35.2536V19.4627H1.63636ZM18.9 35.2536L32.3636 35.2536C33.4682 35.2536 34.3636 34.3581 34.3636 33.2536V19.4627H18.9V35.2536ZM17.1004 8.70167L17.1004 8.71079C17.0996 8.94397 17.0485 9.10463 16.9808 9.21088C16.8665 9.3903 16.5916 9.59233 16.0085 9.70681C15.4395 9.81851 14.7088 9.81788 13.9061 9.71801C12.2838 9.51619 10.6237 8.94436 9.81499 8.42916C8.32869 7.48228 7.8914 5.5098 8.83828 4.0235C9.78516 2.5372 11.7576 2.09991 13.2439 3.04679C14.0526 3.56199 15.2725 4.82488 16.141 6.2099C16.5708 6.89521 16.8802 7.55719 17.0194 8.12008C17.0765 8.35087 17.1 8.54287 17.1004 8.70167ZM18.9 8.71073C18.9008 8.94394 18.9518 9.10462 19.0195 9.21088C19.1338 9.3903 19.4087 9.59233 19.9919 9.70681C20.5608 9.81851 21.2916 9.81788 22.0943 9.71801C23.7166 9.51619 25.3767 8.94436 26.1854 8.42916C27.6717 7.48228 28.109 5.5098 27.1621 4.0235C26.2152 2.5372 24.2427 2.09991 22.7564 3.04679C21.9477 3.56199 20.7279 4.82488 19.8594 6.2099C19.4296 6.89521 19.1202 7.55719 18.981 8.12008C18.9239 8.35087 18.9004 8.54287 18.9 8.70167L18.9 8.71073Z" fill="#CCD2E3"/>
</svg>
