<svg width="24" height="24" viewBox="0 0 24 24" fill="none" xmlns="http://www.w3.org/2000/svg">
<mask id="mask0_313_9245" style="mask-type:alpha" maskUnits="userSpaceOnUse" x="0" y="0" width="24" height="24">
<rect width="24" height="24" fill="#D9D9D9"/>
</mask>
<g mask="url(#mask0_313_9245)">
<path d="M9.29961 20.925L0.974609 12.625C0.891276 12.5417 0.828943 12.4457 0.787609 12.337C0.745609 12.229 0.724609 12.1167 0.724609 12C0.724609 11.8833 0.745609 11.7707 0.787609 11.662C0.828943 11.554 0.891276 11.4583 0.974609 11.375L9.29961 3.05C9.49961 2.85 9.73294 2.75 9.99961 2.75C10.2663 2.75 10.5079 2.85833 10.7246 3.075C10.9246 3.25833 11.0246 3.48733 11.0246 3.762C11.0246 4.03733 10.9246 4.275 10.7246 4.475L3.17461 12L10.7246 19.55C10.9079 19.7333 10.9996 19.9583 10.9996 20.225C10.9996 20.4917 10.8996 20.725 10.6996 20.925C10.4996 21.125 10.2663 21.225 9.99961 21.225C9.73294 21.225 9.49961 21.125 9.29961 20.925Z" fill="#EBF3F0"/>
</g>
</svg>
