<svg width="36" height="35" viewBox="0 0 36 35" fill="none" xmlns="http://www.w3.org/2000/svg">
<path fill-rule="evenodd" clip-rule="evenodd" d="M7.32018 2.30992C8.80119 -0.0148038 11.8864 -0.698768 14.2111 0.782246C15.3079 1.48099 16.7012 2.9687 17.666 4.50717C17.7823 4.69259 17.8943 4.88181 18.0002 5.07353C18.1061 4.88181 18.2181 4.69259 18.3344 4.50717C19.2992 2.9687 20.6925 1.48099 21.7893 0.782246C24.114 -0.698768 27.1992 -0.0148038 28.6802 2.30992C30.1612 4.63465 29.4773 7.71981 27.1525 9.20083C26.7289 9.47073 26.1798 9.73097 25.5616 9.96167H35C35.5523 9.96167 36 10.4094 36 10.9617V15.3435C36 15.8958 35.5523 16.3435 35 16.3435H34.3636V16.9162H18.9V9.96167H17.1V16.9162H1.63636V16.3435H1C0.447715 16.3435 0 15.8958 0 15.3435V10.9617C0 10.4094 0.447716 9.96167 1 9.96167H10.4387C9.82055 9.73097 9.27151 9.47073 8.84785 9.20083C6.52313 7.71981 5.83916 4.63465 7.32018 2.30992ZM1.63636 18.7162V32.5071C1.63636 33.6117 2.53179 34.5071 3.63636 34.5071H17.1V18.7162H1.63636ZM18.9 34.5071H32.3636C33.4682 34.5071 34.3636 33.6117 34.3636 32.5071V18.7162H18.9V34.5071ZM17.1004 7.95523L17.1004 7.96435C17.0996 8.19753 17.0485 8.35819 16.9808 8.46445C16.8665 8.64386 16.5916 8.8459 16.0085 8.96037C15.4395 9.07207 14.7088 9.07144 13.9061 8.97158C12.2838 8.76975 10.6237 8.19792 9.81499 7.68272C8.32869 6.73584 7.8914 4.76336 8.83828 3.27706C9.78516 1.79076 11.7576 1.35347 13.2439 2.30035C14.0526 2.81555 15.2725 4.07844 16.141 5.46347C16.5708 6.14877 16.8802 6.81075 17.0194 7.37364C17.0765 7.60443 17.1 7.79644 17.1004 7.95523ZM18.9 7.9643C18.9008 8.19751 18.9518 8.35818 19.0195 8.46445C19.1338 8.64386 19.4087 8.8459 19.9919 8.96037C20.5608 9.07207 21.2916 9.07144 22.0943 8.97158C23.7166 8.76975 25.3767 8.19792 26.1854 7.68272C27.6717 6.73584 28.109 4.76336 27.1621 3.27706C26.2152 1.79076 24.2427 1.35347 22.7564 2.30035C21.9477 2.81555 20.7279 4.07844 19.8594 5.46347C19.4296 6.14877 19.1202 6.81075 18.981 7.37364C18.9239 7.60443 18.9004 7.79644 18.9 7.95523L18.9 7.9643Z" fill="#CCD2E3"/>
</svg>
