<svg width="32" height="32" viewBox="0 0 32 32" fill="none" xmlns="http://www.w3.org/2000/svg">
<path d="M9.33325 24V5.33331H16.6666C18.1777 5.33331 19.4999 5.78887 20.6333 6.69998C21.7666 7.61109 22.3333 8.77776 22.3333 10.2C22.3333 11.0444 22.111 11.8275 21.6666 12.5493C21.2221 13.272 20.6221 13.8222 19.8666 14.2V14.4666C20.7999 14.7778 21.5555 15.3275 22.1333 16.116C22.711 16.9053 22.9999 17.8 22.9999 18.8C22.9999 20.3333 22.3835 21.5835 21.1506 22.5506C19.9168 23.5169 18.4888 24 16.8666 24H9.33325ZM12.8666 12.9333H16.3999C17.0666 12.9333 17.6555 12.7222 18.1666 12.3C18.6777 11.8778 18.9333 11.3444 18.9333 10.7C18.9333 10.0555 18.6777 9.5222 18.1666 9.09998C17.6555 8.67776 17.0666 8.46665 16.3999 8.46665H12.8666V12.9333ZM12.8666 20.8H16.6666C17.4221 20.8 18.0777 20.572 18.6333 20.116C19.1888 19.6609 19.4666 19.0778 19.4666 18.3666C19.4666 17.6555 19.1888 17.072 18.6333 16.616C18.0777 16.1609 17.4221 15.9333 16.6666 15.9333H12.8666V20.8Z" fill="currentColor"/>
</svg>
