<svg width="32" height="32" viewBox="0 0 32 32" fill="none" xmlns="http://www.w3.org/2000/svg">
<path d="M14.6667 22.6666H9.33341C7.48897 22.6666 5.91697 22.0164 4.61741 20.716C3.31697 19.4164 2.66675 17.8444 2.66675 16C2.66675 14.1555 3.31697 12.5831 4.61741 11.2826C5.91697 9.98309 7.48897 9.33331 9.33341 9.33331H14.6667V12H9.33341C8.2223 12 7.27786 12.3889 6.50008 13.1666C5.7223 13.9444 5.33341 14.8889 5.33341 16C5.33341 17.1111 5.7223 18.0555 6.50008 18.8333C7.27786 19.6111 8.2223 20 9.33341 20H14.6667V22.6666ZM10.6667 17.3333V14.6666H21.3334V17.3333H10.6667ZM17.3334 22.6666V20H22.6667C23.7779 20 24.7223 19.6111 25.5001 18.8333C26.2779 18.0555 26.6667 17.1111 26.6667 16C26.6667 14.8889 26.2779 13.9444 25.5001 13.1666C24.7223 12.3889 23.7779 12 22.6667 12H17.3334V9.33331H22.6667C24.5112 9.33331 26.0836 9.98309 27.3841 11.2826C28.6836 12.5831 29.3334 14.1555 29.3334 16C29.3334 17.8444 28.6836 19.4164 27.3841 20.716C26.0836 22.0164 24.5112 22.6666 22.6667 22.6666H17.3334Z" fill="currentColor"/>
</svg>
