<svg width="32" height="32" viewBox="0 0 32 32" fill="none" xmlns="http://www.w3.org/2000/svg">
<path d="M9.33333 22.6667H22.6667C22.9333 22.6667 23.1333 22.5444 23.2667 22.3C23.4 22.0556 23.3778 21.8222 23.2 21.6L19.5333 16.7C19.4 16.5222 19.2222 16.4333 19 16.4333C18.7778 16.4333 18.6 16.5222 18.4667 16.7L15 21.3333L12.5333 18.0333C12.4 17.8556 12.2222 17.7667 12 17.7667C11.7778 17.7667 11.6 17.8556 11.4667 18.0333L8.8 21.6C8.62222 21.8222 8.6 22.0556 8.73333 22.3C8.86667 22.5444 9.06667 22.6667 9.33333 22.6667ZM6.66667 28C5.93333 28 5.30533 27.7391 4.78267 27.2173C4.26089 26.6947 4 26.0667 4 25.3333V6.66667C4 5.93333 4.26089 5.30533 4.78267 4.78267C5.30533 4.26089 5.93333 4 6.66667 4H25.3333C26.0667 4 26.6947 4.26089 27.2173 4.78267C27.7391 5.30533 28 5.93333 28 6.66667V25.3333C28 26.0667 27.7391 26.6947 27.2173 27.2173C26.6947 27.7391 26.0667 28 25.3333 28H6.66667Z" fill="currentColor"/>
</svg>
